<?xml version="1.0" encoding="UTF-8"?>
<svg id="Layer_1" data-name="Layer 1" xmlns="http://www.w3.org/2000/svg" xmlns:xlink="http://www.w3.org/1999/xlink" viewBox="0 0 190 92">
  <defs>
    <style>
      .cls-1 {
        fill: none;
        stroke: #abf143;
        stroke-miterlimit: 10;
        stroke-width: 4px;
      }

      .cls-2 {
        fill: #abf143;
      }

      .cls-3 {
        fill: #8843f2;
      }

      .cls-4 {
        fill: url(#linear-gradient);
        fill-rule: evenodd;
      }

      .cls-5 {
        fill: #f5eded;
      }

      .cls-6 {
        fill: #080c24;
      }
    </style>
    <linearGradient id="linear-gradient" x1="91.84" y1="55.71" x2="104.29" y2="42.5" gradientTransform="translate(0 98) scale(1 -1)" gradientUnits="userSpaceOnUse">
      <stop offset="0" stop-color="#8843f2"/>
      <stop offset="1" stop-color="#080c24"/>
    </linearGradient>
  </defs>
  <g>
    <ellipse class="cls-6" cx="95" cy="46" rx="92" ry="43"/>
    <path class="cls-6" d="M95,6c49.15,0,89,17.91,89,40s-39.85,40-89,40S6,68.09,6,46,45.85,6,95,6m0-6C70.4,0,47.17,4.35,29.61,12.24,10.51,20.82,0,32.81,0,46s10.51,25.18,29.61,33.76c17.57,7.9,40.79,12.24,65.39,12.24s47.83-4.35,65.39-12.24c19.09-8.58,29.61-20.57,29.61-33.76s-10.51-25.18-29.61-33.76C142.83,4.35,119.6,0,95,0h0Z"/>
  </g>
  <path class="cls-3" d="M94.5,13c15.99,0,30.96,3.65,42.16,10.28,10.54,6.24,16.34,14.31,16.34,22.72s-5.8,16.48-16.34,22.72c-11.2,6.63-26.17,10.28-42.16,10.28s-30.96-3.65-42.16-10.28c-10.54-6.24-16.34-14.31-16.34-22.72s5.8-16.48,16.34-22.72c11.2-6.63,26.17-10.28,42.16-10.28m0-4c-34.52,0-62.5,16.57-62.5,37s27.98,37,62.5,37,62.5-16.57,62.5-37S129.02,9,94.5,9h0Z"/>
  <path class="cls-2" d="M157.16,17.38c-1.26-.55-2.55-1.09-3.88-1.6-15.62-6.09-35.99-9.78-58.28-9.78s-42.66,3.69-58.28,9.78c-1.33,.51-2.62,1.05-3.88,1.6C16.28,24.64,6,34.78,6,46s10.03,21.11,26.24,28.35c1.24,.56,2.52,1.1,3.83,1.61,15.7,6.25,36.32,10.04,58.93,10.04s43.23-3.79,58.93-10.04c1.31-.51,2.59-1.05,3.83-1.61,16.21-7.24,26.24-17.27,26.24-28.35s-10.28-21.36-26.84-28.62Zm-.87,53.26c-.43,.19-.87,.39-1.31,.58-1.31,.56-2.66,1.11-4.04,1.63-15.57,5.92-35.18,9.15-55.94,9.15s-40.37-3.23-55.94-9.15c-1.38-.52-2.73-1.07-4.04-1.63-.44-.19-.88-.39-1.31-.58-15.07-6.78-23.71-15.75-23.71-24.64s8.64-17.86,23.71-24.64c.66-.3,1.34-.59,2.02-.88,1.33-.56,2.7-1.1,4.1-1.62,15.44-5.73,34.75-8.86,55.17-8.86s39.73,3.13,55.17,8.86c1.4,.52,2.77,1.06,4.1,1.62,.68,.29,1.36,.58,2.02,.88,15.07,6.78,23.71,15.75,23.71,24.64s-8.64,17.86-23.71,24.64Z"/>
  <path class="cls-2" d="M153.28,15.78c-.94,1.05-1.98,2.08-3.11,3.08-2.39,2.11-5.19,4.11-8.39,5.96-12.43,7.21-29.04,11.18-46.78,11.18s-34.35-3.97-46.78-11.18c-3.2-1.85-6-3.85-8.39-5.96-1.13-1-2.17-2.03-3.11-3.08-1.33,.51-2.62,1.05-3.88,1.6,.88,1.06,1.85,2.1,2.89,3.1,12.04,11.69,34.08,19.52,59.27,19.52s47.23-7.83,59.27-19.52c1.04-1,2.01-2.04,2.89-3.1-1.26-.55-2.55-1.09-3.88-1.6Z"/>
  <path class="cls-2" d="M154.98,71.22c-11.87-12.08-34.28-20.22-59.98-20.22s-48.11,8.14-59.98,20.22c-1.01,1.02-1.93,2.06-2.78,3.13,1.24,.56,2.52,1.1,3.83,1.61,.9-1.06,1.9-2.1,2.99-3.11,2.55-2.38,5.61-4.62,9.16-6.67,12.43-7.21,29.04-11.18,46.78-11.18s34.35,3.97,46.78,11.18c3.55,2.05,6.61,4.29,9.16,6.67,1.09,1.01,2.09,2.05,2.99,3.11,1.31-.51,2.59-1.05,3.83-1.61-.85-1.07-1.77-2.11-2.78-3.13Z"/>
  <line class="cls-1" x1="8" y1="46" x2="182" y2="46"/>
  <g>
    <circle class="cls-6" cx="95" cy="46" r="38"/>
    <path class="cls-2" d="M95,10c19.85,0,36,16.15,36,36s-16.15,36-36,36-36-16.15-36-36S75.15,10,95,10m0-4c-22.09,0-40,17.91-40,40s17.91,40,40,40,40-17.91,40-40S117.09,6,95,6h0Z"/>
  </g>
  <circle class="cls-5" cx="95" cy="46" r="22"/>
  <path class="cls-4" d="M94.8,32.04c-.02,.14-.12,.72-.2,1.28-.98,6.28-2.18,8.66-5.08,10.13-1.35,.68-3.69,1.29-6.82,1.78-1.62,.25-1.55,.23-1.55,.4s-.08,.15,1.55,.4c6.28,.98,8.66,2.18,10.13,5.08,.68,1.35,1.29,3.69,1.78,6.82,.25,1.62,.23,1.55,.4,1.55s.16,.05,.44-1.72c1.37-8.59,3.05-10.3,11.48-11.66,2.03-.33,1.94-.31,1.94-.48,0-.11-.08-.16-.26-.19-.14-.02-1-.17-1.91-.32-4.51-.76-6.64-1.55-8.13-3.04-1.53-1.53-2.36-3.82-3.12-8.57-.28-1.77-.27-1.72-.44-1.72-.11,0-.16,.07-.19,.26Z"/>
</svg>