<?xml version="1.0" standalone="no"?>
<!DOCTYPE svg PUBLIC "-//W3C//DTD SVG 20010904//EN"
 "http://www.w3.org/TR/2001/REC-SVG-20010904/DTD/svg10.dtd">
<svg version="1.0" xmlns="http://www.w3.org/2000/svg"
 width="176.000000pt" height="176.000000pt" viewBox="0 0 176.000000 176.000000"
 preserveAspectRatio="xMidYMid meet">
<metadata>
Created by potrace 1.14, written by Peter Selinger 2001-2017
</metadata>
<g transform="translate(0.000000,176.000000) scale(0.100000,-0.100000)"
fill="#000000" stroke="none">
<path d="M162 1729 c-65 -32 -99 -66 -135 -133 -22 -41 -22 -42 -25 -706 l-3
-664 31 -63 c35 -70 72 -106 147 -140 l51 -24 664 3 c628 3 665 4 698 22 64
34 106 74 136 128 l29 53 0 675 0 675 -22 41 c-36 67 -70 101 -135 133 l-61
31 -657 0 -657 0 -61 -31z m780 -268 c18 -6 61 -15 95 -20 56 -9 123 -34 123
-47 0 -2 -9 0 -21 6 -11 6 -28 10 -37 8 -14 -3 -13 -6 6 -17 36 -19 112 -40
112 -30 0 30 63 -18 89 -68 17 -33 14 -34 -30 -11 -47 24 -133 36 -143 19 -4
-6 4 -22 18 -36 14 -14 21 -25 15 -25 -14 0 -70 29 -91 47 -24 21 -62 13 -66
-14 -3 -19 6 -27 52 -48 30 -14 67 -25 82 -25 41 0 18 -18 -34 -26 -38 -6 -42
-5 -36 11 10 24 -14 35 -59 28 -31 -5 -42 -1 -63 18 l-24 23 11 -32 c14 -41
79 -98 145 -129 l54 -24 34 35 c25 27 42 36 65 36 18 0 41 4 51 10 23 12 46 4
55 -18 5 -14 4 -15 -6 -4 -22 21 -28 14 -22 -25 6 -36 6 -37 -11 -20 -10 9
-29 17 -43 17 -26 0 -26 0 -7 -22 10 -13 12 -17 4 -10 -19 16 -50 15 -50 -2 0
-8 20 -34 45 -57 50 -47 70 -99 62 -161 -5 -34 -3 -38 16 -38 12 0 51 -8 87
-18 52 -15 66 -23 68 -40 4 -24 -8 -28 -26 -10 -9 9 -12 7 -12 -12 -1 -24 -1
-24 -15 -6 -12 16 -29 20 -85 22 -38 2 -70 -1 -70 -6 0 -5 -30 -24 -67 -42
-62 -30 -75 -33 -158 -32 -74 1 -100 5 -147 27 -32 14 -58 21 -58 15 0 -7 -16
-8 -46 -3 -36 5 -45 4 -42 -7 3 -7 22 -14 44 -16 49 -4 64 -17 64 -55 0 -31 0
-31 -16 -9 -20 30 -44 28 -44 -2 0 -14 -4 -28 -10 -31 -5 -3 -10 3 -10 13 0
11 -7 25 -15 32 -13 11 -19 8 -40 -14 -27 -29 -26 -29 -49 -20 -15 6 -15 8 1
19 17 13 17 15 -3 41 -11 15 -36 33 -55 40 l-34 12 30 11 c23 10 26 14 15 21
-55 35 -160 -38 -160 -110 0 -65 78 -125 177 -136 84 -10 232 31 458 127 90
38 108 43 185 43 76 1 90 -2 132 -27 52 -30 89 -74 107 -126 21 -65 9 -111
-26 -93 -33 18 -46 -1 -52 -81 -6 -70 -21 -119 -21 -68 0 36 -24 35 -102 -6
-73 -38 -73 -38 -213 -41 -77 -2 -137 -1 -134 2 3 4 57 11 120 17 63 5 129 15
147 20 39 13 57 41 42 68 -14 28 -12 36 5 21 12 -10 24 -10 54 -1 58 17 62 50
12 95 -34 31 -22 86 18 86 12 0 12 -3 3 -12 -30 -30 0 -68 39 -48 30 17 24 57
-15 96 -32 32 -38 34 -97 34 -95 -1 -196 -52 -168 -86 10 -12 0 -13 -62 -8
l-74 6 -20 -31 c-14 -22 -28 -31 -47 -31 -18 0 -28 -5 -28 -15 0 -10 -10 -15
-28 -15 -16 0 -37 -6 -47 -14 -16 -12 -17 -16 -6 -30 15 -18 57 -21 98 -5 l28
10 -26 -26 c-42 -42 -94 -44 -176 -5 -95 45 -123 52 -130 35 -3 -8 4 -31 16
-50 11 -19 17 -35 13 -35 -12 0 -103 59 -129 83 -17 15 -23 17 -23 6 0 -9 -7
-6 -18 9 -27 35 -74 62 -107 62 -44 0 -58 13 -64 62 -5 34 -10 43 -26 43 -34
0 -30 -39 9 -83 20 -22 36 -46 35 -53 0 -8 -4 -5 -9 7 -4 12 -29 31 -53 42
-25 12 -47 29 -49 39 -5 24 15 89 46 151 21 42 23 52 12 62 -19 15 -30 -3 -20
-32 6 -20 5 -21 -10 -6 -9 9 -16 27 -16 39 0 33 76 101 137 122 70 25 83 41
46 60 l-28 15 45 12 c43 12 158 9 222 -6 36 -8 51 21 22 44 -18 14 -18 14 -1
8 10 -3 25 -6 34 -6 8 0 37 -23 65 -50 28 -28 62 -53 76 -57 27 -6 59 8 55 25
-3 14 54 -3 76 -22 9 -7 26 -17 37 -20 45 -14 76 62 35 84 -29 15 -51 12 -51
-7 0 -26 -49 24 -67 70 -12 29 -18 35 -29 26 -18 -15 -33 -3 -50 37 -15 36
-38 45 -48 18 -6 -16 29 -56 69 -81 17 -10 12 -11 -29 -8 -73 6 -90 27 -94
120 -5 83 -12 95 -66 97 -42 1 -53 -6 -58 -42 -4 -22 -5 -20 -12 13 -10 47 12
85 55 94 39 7 36 38 -4 38 -15 -1 -27 2 -27 6 0 15 53 49 76 49 33 0 54 10 54
27 0 8 5 11 10 8 17 -11 50 5 50 25 0 25 -13 28 -110 24 -61 -2 -73 -1 -43 5
23 4 51 15 62 25 11 10 38 20 60 23 23 3 41 10 41 15 0 5 13 -4 30 -20 16 -17
45 -35 62 -41z"/>
</g>
</svg>
